<svg version="1.1" width="235" height="235" viewBox="-5.5 -5.5 235 235" xmlns="http://www.w3.org/2000/svg" xmlns:xlink="http://www.w3.org/1999/xlink">
  <!-- Exported by Scratch - http://scratch.mit.edu/ -->
  <path id="ID0.8791200337000191" fill="#E5E5E5" stroke="none" d="M 112 0 C 142.9 0 170.9 12.55 191.175 32.825 C 211.45 53.1 224 81.1 224 112 C 224 142.9 211.45 170.9 191.175 191.175 C 170.9 211.45 142.9 224 112 224 C 81.1 224 53.1 211.45 32.825 191.175 C 12.55 170.9 0 142.9 0 112 C 0 81.1 12.55 53.1 32.825 32.825 C 53.1 12.55 81.1 0 112 0 Z " stroke-width="1"/>
  <path id="ID0.30086851259693503" fill="none" stroke="#000000" stroke-width="6" d="M 68.5 53 C 73.604 53 78.229 56.025 81.578 60.913 C 84.927 65.801 87 72.551 87 80 C 87 87.449 84.927 94.199 81.578 99.087 C 78.229 103.975 73.604 107 68.5 107 C 63.396 107 58.771 103.975 55.422 99.087 C 52.073 94.199 50 87.449 50 80 C 50 72.551 52.073 65.801 55.422 60.913 C 58.771 56.025 63.396 53 68.5 53 Z "/>
  <path id="ID0.30086851259693503" fill="none" stroke="#000000" stroke-width="6" d="M 150.5 52 C 155.604 52 160.229 55.025 163.578 59.913 C 166.927 64.801 169 71.551 169 79 C 169 86.449 166.927 93.199 163.578 98.087 C 160.229 102.975 155.604 106 150.5 106 C 145.396 106 140.771 102.975 137.422 98.087 C 134.073 93.199 132 86.449 132 79 C 132 71.551 134.073 64.801 137.422 59.913 C 140.771 55.025 145.396 52 150.5 52 Z "/>
  <path id="ID0.5875795432366431" fill="#000000" stroke="none" d="M 68.5 74 C 70.293 74 71.918 74.728 73.095 75.905 C 74.272 77.082 75 78.707 75 80.5 C 75 82.293 74.272 83.918 73.095 85.095 C 71.918 86.272 70.293 87 68.5 87 C 66.707 87 65.082 86.272 63.905 85.095 C 62.728 83.918 62 82.293 62 80.5 C 62 78.707 62.728 77.082 63.905 75.905 C 65.082 74.728 66.707 74 68.5 74 Z " stroke-width="1"/>
  <path id="ID0.5875795432366431" fill="#000000" stroke="none" d="M 151 73.5 C 152.793 73.5 154.418 74.228 155.595 75.405 C 156.772 76.582 157.5 78.207 157.5 80 C 157.5 81.793 156.772 83.418 155.595 84.595 C 154.418 85.772 152.793 86.5 151 86.5 C 149.207 86.5 147.582 85.772 146.405 84.595 C 145.228 83.418 144.5 81.793 144.5 80 C 144.5 78.207 145.228 76.582 146.405 75.405 C 147.582 74.228 149.207 73.5 151 73.5 Z " stroke-width="1"/>
  <path id="ID0.8042721138335764" fill="none" stroke="#000000" stroke-width="11" stroke-linecap="round" d="M 78 159 C 78 159 84.628 169.048 89 173 C 92.062 175.927 96.146 177.404 100 179 C 103.011 180.231 106.612 180.812 110 181 C 113.608 181.192 117.355 180.734 121 180 C 125.067 179.057 129.272 178.135 133 176 C 136.48 174.011 139.436 171.079 142 168 C 144.53 165.031 150 157 150 157 "/>
  <path id="ID0.5927709862589836" fill="#FF0000" stroke="#000000" stroke-width="8.97097251533274" stroke-linecap="round" d="M 99.9615 177.8052 C 97.8209 178.2848 95.5172 180.8352 95.7966 182.9481 C 96.9002 191.0497 99.2195 199.3311 103.7338 206.1988 C 105.5193 208.9144 109.8883 209.0256 113.1329 208.8285 C 116.234 208.6402 119.2342 207.0121 121.6882 205.1062 C 124.072 203.2562 125.8678 200.6194 127.1963 197.9103 C 128.6277 194.9923 129.41 191.7338 129.8261 188.5111 C 130.2674 185.0989 132.2333 180.5119 129.7462 178.1791 C 127.262 175.8485 122.9369 179.0553 119.5448 179.7283 C 117.0041 179.8435 114.4967 180.6951 111.9605 180.542 C 107.9171 180.2932 104.0051 177.365 99.9615 177.8052 Z "/>
  <path id="ID0.013379020616412163" fill="none" stroke="#000000" stroke-width="9.066666603088379" stroke-linecap="round" d="M 113.5167 107.8 C 113.5167 107.8 109.5511 120.8821 106.7167 127.0667 C 105.3635 130.0179 102.4225 132.0579 101.05 135 C 99.7342 137.8197 97.9288 141.0747 98.7833 144.0667 C 99.6628 147.1459 102.6401 149.6053 105.5833 150.8667 C 108.3589 152.0555 111.6308 150.8667 114.65 150.8667 C 115.4048 150.8667 116.9167 150.8667 116.9167 150.8667 "/>
</svg>