<svg version="1.1" xmlns="http://www.w3.org/2000/svg" xmlns:xlink="http://www.w3.org/1999/xlink" width="498.66969" height="405.57874" viewBox="0,0,498.66969,405.57874"><g transform="translate(7.5,7.5)"><g data-paper-data="{&quot;isPaintingLayer&quot;:true}" fill-rule="nonzero" stroke-linejoin="miter" stroke-miterlimit="10" stroke-dasharray="" stroke-dashoffset="0" style="mix-blend-mode: normal"><path d="M0,0h480v360h-480z" fill="#9afbba" stroke="none" stroke-width="1" stroke-linecap="butt"/><path d="M0,350c-3.56,-5.502 0,-15.258 0,-23c0,-30.969 -0.287,-62.032 0,-93c0.072,-7.742 0.429,-10.027 1,-15c1.761,-15.347 4.023,-30.679 6,-46c0.687,-5.325 1.483,-10.656 2,-16c0.482,-4.983 0.518,-10.017 1,-15c0.517,-5.344 1.145,-10.699 2,-16c0.811,-5.029 2.001,-10.005 3,-15c0.999,-4.995 1.642,-10.09 3,-15c2.976,-10.76 7.024,-21.24 10,-32c1.358,-4.91 2.493,-9.931 3,-15c0.497,-4.97 -1.372,-10.197 0,-15c1.396,-4.887 3.771,-10.18 8,-13c4.51,-3.007 10.58,-2.882 16,-3c10.01,-0.218 21.045,-2.478 30,2c4.624,2.312 5.121,9.954 4,15c-1.128,5.078 -7.541,7.417 -10,12c-4.941,9.209 -8.428,19.178 -12,29c-1.767,4.858 -2.559,10.035 -4,15c-1.556,5.361 -3.286,10.687 -5,16c-1.616,5.011 -2.783,10.224 -5,15c-2.141,4.61 -5.66,8.488 -8,13c-2.335,4.503 -4.462,9.167 -6,14c-3.135,9.852 -6.19,19.821 -8,30c-0.874,4.918 -0.322,10.015 0,15c0.346,5.358 1.313,10.675 2,16c0.645,4.998 1.499,9.986 2,15c0.498,4.981 0.018,10.091 1,15c1.033,5.163 3.133,10.077 5,15c1.799,4.742 4.201,9.258 6,14c1.867,4.923 4.766,9.74 5,15c0.446,10.03 2.664,21.711 -3,30c-9.096,13.311 -25.007,20.454 -38,30c-3.363,2.47 -9.06,8.998 -11,14z" fill="none" stroke="#7f7f7f" stroke-width="15" stroke-linecap="round"/><path d="M155,44c0,0 12.312,3.062 17,7c4.111,3.454 5.804,9.1 8,14c2.154,4.805 5.234,9.74 5,15c-0.455,10.248 -5.423,19.864 -7,30c-0.768,4.936 -0.868,10.081 0,15c0.217,1.23 3,2 3,2" fill="none" stroke="#7f7f7f" stroke-width="15" stroke-linecap="round"/><path d="M92,324c0,0 -12.113,-17.78 -19,-26c-3.481,-4.155 -8.083,-7.253 -12,-11c-3.743,-3.581 -9.305,-6.105 -11,-11c-1.648,-4.762 -0.254,-10.493 2,-15c4.917,-9.833 12.132,-18.415 19,-27c6.479,-8.099 14.886,-14.622 21,-23c2.99,-4.097 4.201,-9.258 6,-14c1.867,-4.923 3.532,-9.944 5,-15c1.531,-5.274 3.319,-10.55 4,-16c0.992,-7.937 1,-24 4,-22c0,0 1.15,-10 1,-15c-0.2,-5.4 -0.65,-10.85 -2,-16c-1.35,-4.95 -3.35,-9.7 -6,-14c-5.4,-8.75 -11.35,-17.25 -18,-25c-3.4,-3.95 -7,-8.65 -12,-10c-10,-2.8 -20.75,-3.1 -31,-2c-6.1,0.6 -17,7 -23,6c0,0 -5.1,-10.55 -7,-16c-1.75,-4.9 -3.15,-9.95 -4,-15c-0.85,-4.95 -0.85,-10 -1,-15c-0.2,-5 -2.85,-10.9 0,-15c3.1,-4.6 9.55,-6.2 15,-7c10.2,-1.55 20.65,0 31,0c40.25,0 80.7,-0.55 121,0c10.05,0.1 10.1,0.7 15,2c6.5,1.7 19,7 19,7" fill="none" stroke="#7f7f7f" stroke-width="15" stroke-linecap="round"/><path d="M268,343c0,0 -12.768,0.145 -19,-1c-10.169,-1.868 -19.897,-5.804 -30,-8c-5.247,-1.141 -16,-2 -16,-2" fill="none" stroke="#7f7f7f" stroke-width="15" stroke-linecap="round"/><path d="M223,276c0,0 0.958,-0.042 0,-1c-3.833,-3.833 -8.833,-6.601 -12,-11c-2.964,-4.116 -5.307,-8.975 -6,-14c-0.689,-4.992 -0.32,-10.526 2,-15c2.601,-5.017 12,-12 12,-12" fill="none" stroke="#7f7f7f" stroke-width="15" stroke-linecap="round"/><path d="M177,64c0,0 12.901,-0.715 19,1c4.893,1.376 9.49,4.323 13,8c3.707,3.884 7.145,8.699 8,14c0.915,5.675 -3,17 -2,21c0,0 -2.4,5.95 -2,9c0.65,5.2 2.4,10.35 5,15c2.5,4.5 6.75,7.9 10,12c3.1,3.9 6.35,7.7 9,12c2.7,4.4 5.3,9.05 7,14c1.65,4.8 3.5,9.9 3,15c-0.55,5.35 -6,15 -3,15c0,0 -1.75,2.9 -3,4c-3.8,3.25 -7.6,6.7 -12,9c-4.7,2.4 -9.8,4.15 -15,5c-7.95,1.2 -24,1 -24,1" fill="none" stroke="#7f7f7f" stroke-width="15" stroke-linecap="round"/><path d="M172.3,59.3l3.7,21.7c-0.368,0.59 -9.66,-5.244 -11,-10c-1.357,-4.77 4.034,-14.466 3,-15z" fill="none" stroke="#7f7f7f" stroke-width="15" stroke-linecap="round"/><path d="M116,128c0,0 5.503,2.377 8,4c4.188,2.722 7.87,6.191 12,9c4.203,2.858 8.821,5.107 13,8c4.49,3.109 13,10 13,14c0,0 -18.9,12.35 -28,19c-4.25,3.05 -7,8.55 -12,10c-9.65,2.75 -20,2.4 -30,2c-5.2,-0.25 -10.2,-2.2 -15,-4c-4.9,-1.85 -9.6,-4.3 -14,-7c-4.3,-2.65 -8.35,-5.65 -12,-9c-3.7,-3.35 -10,-11 -10,-11" fill="none" stroke="#7f7f7f" stroke-width="15" stroke-linecap="round"/><path d="M248,96c0,0 10.936,-2.688 16,-1c5.625,1.875 14,11 14,11" fill="none" stroke="#7f7f7f" stroke-width="15" stroke-linecap="round"/><path d="M303,177c0,0 21.3,3.65 32,3c5.35,-0.35 10.85,-2.6 15,-6c3.9,-3.25 6.4,-8.2 8,-13c1.5,-4.8 1.8,-10.1 1,-15c-0.9,-5.35 -3.8,-10.1 -6,-15c-2.15,-4.8 -4.55,-9.45 -7,-14c-2.55,-4.75 -5.85,-9.15 -8,-14c-2.2,-4.85 -3.85,-9.9 -5,-15c-1.15,-4.95 -1.85,-10 -2,-15c-0.2,-5.05 -0.75,-10.3 1,-15c5.35,-14.85 10,-30.8 20,-43c3.15,-3.9 10.15,-1.4 15,0c4.85,1.35 8.2,6.25 13,8c4.7,1.65 11.15,-1.3 15,2c4,3.4 0.7,11.95 5,15c5.15,3.65 19,2 19,2c-3,1 3.771,-6.922 7,-11c3.1,-3.916 4.87,-9.191 9,-12c4.616,-3.139 10.548,-3.803 16,-5c8.235,-1.808 25,-4 25,-4" fill="none" stroke="#7f7f7f" stroke-width="15" stroke-linecap="round"/><path d="M268,17c0,0 10.584,-2.774 16,-3c10.652,-0.444 21.376,0.115 32,1c5.402,0.45 10.644,2.163 16,3c5.305,0.829 16,2 16,2" fill="none" stroke="#7f7f7f" stroke-width="15" stroke-linecap="round"/><path d="M327,273c0,0 1.762,10.587 6,12c4.995,1.665 10.359,-2.514 15,-5c4.814,-2.579 13,-10 15,-7c0,0 -2.15,-8 -3,-12c-1.15,-5 -1.85,-10.05 -3,-15c-1.2,-5.05 -2.45,-10.1 -4,-15c-1.75,-5.45 -3,-11.2 -6,-16c-2.8,-4.4 -7.2,-7.5 -11,-11c-4.2,-3.85 -8.5,-7.6 -13,-11c-4.85,-3.65 -9.65,-7.35 -15,-10c-10.05,-5.05 -21.9,-6.55 -31,-13c-4.25,-3.05 -6,-8.9 -7,-14c-1.05,-5.25 -0.35,-10.85 1,-16c1.35,-5.35 4.6,-10.05 7,-15c2.25,-4.7 4.9,-9.25 7,-14c2.25,-5.25 4.15,-10.65 6,-16c1.8,-5.3 3.6,-10.6 5,-16c1.25,-4.95 2.45,-9.95 3,-15c0.45,-5 0.15,-10.05 0,-15c-0.2,-5.05 1.3,-10.6 -1,-15c-2.4,-4.65 -7.65,-7.2 -12,-10c-4.4,-2.9 -9.3,-4.85 -14,-7c-4.6,-2.15 -9.2,-4.5 -14,-6c-4.9,-1.55 -10.05,-2.05 -15,-3c-5,-1 -9.95,-3.2 -15,-3c-5.2,0.15 -10.65,1.2 -15,4c-4.4,2.8 -8.4,7.05 -10,12c-1.6,4.7 -2.15,11.05 1,15c3.25,4.1 10.35,2.4 15,5c4.5,2.5 7.7,7 12,10c4.4,3.05 9.65,4.8 14,8c4.35,3.15 9.7,6.05 12,11c2.05,4.5 1.9,10.4 0,15c-2.05,4.75 -6.9,7.8 -11,11c-4.65,3.55 -9.9,6.25 -15,9c-4.9,2.55 -10,4.7 -15,7c-4.65,2.05 -9.4,3.85 -14,6c-4.75,2.15 -9.6,4.25 -14,7c-5.3,3.25 -10.3,6.95 -15,11c-4,3.3 -9.35,6.1 -11,11c-1.65,4.75 -0.35,10.5 2,15c2.6,5 7.55,8.45 12,12c3.95,3.15 8.35,5.85 13,8c4.75,2.2 9.9,3.6 15,5c4.9,1.3 10,1.8 15,3c5,1.15 10.1,2.2 15,4c5.15,1.85 9.9,4.8 15,7c4.9,2.1 10.05,3.75 15,6c4.75,2.1 9.6,4.1 14,7c4.35,2.8 8.05,6.55 12,10c4.05,3.55 8,7.3 12,11c3.95,3.65 8.7,6.65 12,11c3.15,4.15 4.8,9.25 7,14c2.1,4.6 4.8,9.05 6,14c1.15,4.85 1.15,9.95 1,15c-0.2,5 -1.05,10.05 -2,15c-1.05,5.05 -1.65,10.4 -4,15c-2.4,4.6 -6.1,8.55 -10,12c-3.85,3.3 -8.25,6.25 -13,8c-4.75,1.65 -10,1.8 -15,2c-5.05,0.15 -11.85,2.85 -15,-1c-3.2,-3.95 1.5,-10 2,-15c0.5,-5.65 0.45,-11.4 1,-17c0.45,-5.05 1.65,-10 2,-15c0.35,-5.65 0.15,-11.35 0,-17c-0.2,-5.05 0.3,-10.2 -1,-15c-1.4,-5.05 -3.85,-9.85 -7,-14c-3.3,-4.35 -7.55,-7.95 -12,-11c-4.3,-3 -9.3,-4.85 -14,-7c-4.6,-2.15 -9.3,-4.25 -14,-6c-4.95,-1.9 -9.85,-4.15 -15,-5c-4.95,-0.85 -10.05,0.15 -15,0c-5.05,-0.2 -10,-0.85 -15,-1c-5,-0.2 -10.05,-0.5 -15,0c-5.1,0.5 -10.3,1.1 -15,3c-4.75,1.85 -9.7,4.15 -13,8c-3.35,3.8 -4.85,9.05 -6,14c-1.2,4.85 -2.25,10.1 -1,15c1.2,4.9 4.8,9 8,13c3.2,4.05 6.7,8.05 11,11c4.5,3.1 9.5,6.25 15,7c5,0.65 10.15,-1.35 15,-3c4.9,-1.7 9,-5.55 14,-7c5.1,-1.55 10.6,-2.2 16,-2c5.05,0.15 10.95,-0.15 15,3c4.45,3.45 7.25,9.35 8,15c0.65,5.1 -1.45,10.5 -4,15c-2.6,4.45 -7.1,7.6 -11,11c-3.8,3.25 -7.9,6.15 -12,9c-4.25,2.85 -8.3,6.1 -13,8c-4.75,1.85 -10,2.15 -15,3c-5,0.8 -10,1.45 -15,2c-5,0.45 -10,0.8 -15,1c-5,0.15 -10.05,0.3 -15,0c-5.05,-0.35 -10.1,-1.05 -15,-2c-5.1,-1.05 -10.45,-1.65 -15,-4c-4.65,-2.4 -10.75,-5 -12,-10c-1.25,-4.95 3.1,-9.85 6,-14c2.9,-4.3 7.85,-6.9 11,-11c3.2,-4.3 7.05,-8.75 8,-14c0.85,-5.05 -1.55,-10.15 -3,-15c-1.55,-5.2 -3.8,-10.1 -6,-15c-2.15,-4.8 -5.05,-9.2 -7,-14c-2.05,-4.9 -3.55,-9.95 -5,-15c-1.55,-5.3 -3.3,-10.6 -4,-16c-0.65,-5 -0.5,-10.05 0,-15c0.5,-5.4 1.95,-10.7 3,-16c0.95,-5.05 1.5,-10.15 3,-15c1.5,-5.2 3.75,-10.1 6,-15c2.1,-4.8 4.4,-9.5 7,-14c2.75,-4.85 5.9,-9.4 9,-14c2.9,-4.4 5.9,-8.75 9,-13c2.9,-4.1 6.25,-7.85 9,-12c2.9,-4.5 5.45,-9.3 8,-14c2.45,-4.6 5.15,-9.15 7,-14c1.8,-4.85 3.45,-9.9 4,-15c0.45,-5 1.35,-10.6 -1,-15c-2.4,-4.4 -8.05,-6.05 -12,-9c-4,-3 -7.3,-7.35 -12,-9c-5.05,-1.8 -10.7,-1 -16,-1c-5.05,0 -10.5,-1.2 -15,1c-5.1,2.45 -12,12 -12,12" fill="none" stroke="#7f7f7f" stroke-width="15" stroke-linecap="round"/><path d="M172,290c0,0 -10.812,0.616 -16,2c-4.901,1.307 -9.607,3.465 -14,6c-4.327,2.496 -8.208,5.749 -12,9c-10.205,8.747 -30,27 -30,27c2,7 -9.35,5.35 -15,5c-5,-0.35 -10.05,-0.35 -15,0c-5.05,0.3 -10,1.45 -15,2c-5,0.45 -10.05,0.5 -15,1c-5.05,0.5 -10.1,0.9 -15,2c-5.8,1.25 -17,5 -17,5" fill="none" stroke="#7f7f7f" stroke-width="15" stroke-linecap="round"/><path d="M174,218c0,0 -21.345,2.68 -32,2c-5.254,-0.335 -10.077,-3.133 -15,-5c-4.742,-1.799 -9.806,-3.148 -14,-6c-4.284,-2.913 -7.128,-7.558 -11,-11c-2.141,-1.903 -7,-5 -7,-5" fill="none" stroke="#7f7f7f" stroke-width="15" stroke-linecap="round"/><path d="M292,227c0,0 3.947,2.894 5,5c2.355,4.709 4.304,9.781 5,15c0.662,4.962 0.532,10.234 -1,15c-1.555,4.839 -4.406,9.406 -8,13c-3.594,3.594 -8.213,6.29 -13,8c-4.746,1.695 -10.005,2.666 -15,2c-10.248,-1.366 -20.258,-4.536 -30,-8c-5.334,-1.896 -15,-8 -15,-8" fill="none" stroke="#7f7f7f" stroke-width="15" stroke-linecap="round"/><path d="M242,198c0,0 3.02,-3.208 5,-4c4.8,-1.92 9.931,-2.986 15,-4c4.941,-0.988 10.029,-1.172 15,-2c5.025,-0.837 10.039,-1.843 15,-3c5.034,-1.175 15,-4 15,-4" fill="none" stroke="#7f7f7f" stroke-width="15" stroke-linecap="round"/><path d="M70,17c0,0 4.005,-1.928 9,-2c19.981,-0.29 40.033,0.212 60,1c5.365,0.212 10.762,0.817 16,2c5.136,1.16 10.184,2.872 15,5c9.535,4.213 18.474,9.766 28,14c5.486,2.438 17,6 17,6" fill="none" stroke="#7f7f7f" stroke-width="15" stroke-linecap="round"/><path d="M400,41c0,0 10.7,6.5 15,11c3.8,3.95 7.45,8.65 9,14c2.85,9.95 6.95,21 4,31c-1.55,5.15 -9.7,5.2 -15,6c-15.2,2.2 -30.7,3.5 -46,3c-5.3,-0.2 -10.55,-2.25 -15,-5c-4.45,-2.75 -8.45,-6.55 -11,-11c-2.6,-4.5 -2.9,-10 -4,-15c-0.3,-1.3 0,-3 -5,-21c0,0 0.6,0.65 1,2c1.45,5.25 2.65,10.65 4,16c-7,2 -8.137,12.259 -10,17c-1.859,4.731 -4.239,9.581 -8,13c-3.857,3.506 -9.072,5.301 -14,7c-4.816,1.661 -9.906,3 -15,3c-3.477,0 -10,-3 -10,-3" fill="none" stroke="#7f7f7f" stroke-width="15" stroke-linecap="round"/><path d="M334,24c0,-0.059 0,3 0,3c0,0 -1.319,4.158 -4,16z" fill="none" stroke="#7f7f7f" stroke-width="15" stroke-linecap="round"/><path d="M449,160c0,0 0.779,-3.528 0,-5c-2.337,-4.415 -6.191,-7.87 -9,-12c-2.858,-4.203 -5.142,-8.797 -8,-13c-2.809,-4.13 -7.372,-7.278 -9,-12c-1.849,-5.361 -1,-17 -1,-17" fill="none" stroke="#7f7f7f" stroke-width="15" stroke-linecap="round"/><path d="M479.99874,360.49954c0.19649,0.07162 -10.09982,-3.67266 -10.09982,-3.67266c0,0 -2.13932,-5.74588 -17.90422,-21.57688z" fill="none" stroke="#adffb2" stroke-width="14" stroke-linecap="round"/><path d="M316,180c0,0 8.05,7.05 13,9c4.65,1.8 10.05,1 15,2c5.05,1 9.9,3.1 15,4c10.25,1.75 20.6,3.3 31,4c4.95,0.3 10.3,0.7 15,-1c4.65,-1.75 8.55,-5.4 12,-9c3.6,-3.85 5.15,-9.4 9,-13c3.65,-3.55 9.05,-4.8 13,-8c1.85,-1.55 4,-6 4,-6c3,8 1.75,0.35 0,-3c-2.35,-4.45 -5.75,-8.25 -9,-12c-3.75,-4.3 -6.95,-9.55 -12,-12c-4.55,-2.2 -10,-0.85 -15,-1c-5,-0.2 -10.05,-0.5 -15,0c-5.1,0.5 -10.35,0.9 -15,3c-4.6,2 -8.65,5.3 -12,9c-3.75,4.05 -9,14 -3,1c0,0 14.336,-0.221 21,2c4.739,1.58 8.468,5.468 12,9c3.532,3.532 7.828,7.144 9,12c1.337,5.541 -2,17 2,23c0,0 -10.4,14.1 -14,22c-2.15,4.6 -2.85,9.9 -3,15c-0.2,5 -0.05,10.35 2,15c2.1,4.75 6,8.65 10,12c4.1,3.4 8.9,6.3 14,8c10,3.3 21.05,3.3 31,7c4.65,1.7 8.7,5.2 12,9c3.5,4.05 6.8,8.75 8,14c2.2,9.75 3.6,20.1 2,30c-0.85,4.9 -5.1,8.85 -9,12c-4.35,3.4 -9.55,6.3 -15,7c-5.75,0.7 -17,-3 -15,-9c0,0 -4.4,1.15 -6,0c-4.45,-3.15 -6.65,-8.85 -11,-12c-4.15,-3 -9.4,-3.9 -14,-6c-4.75,-2.2 -9.95,-3.8 -14,-7c-4.1,-3.25 -7.5,-7.5 -10,-12c-2.6,-4.65 -2.75,-10.3 -5,-15c-2.45,-5 -9,-14 -6,-11c0,0 11.25,-8.15 17,-12c4.55,-3.15 9.35,-5.95 14,-9c8.35,-5.6 16.95,-10.95 25,-17c4.3,-3.3 8.3,-7 12,-11c3.35,-3.7 6.25,-7.85 9,-12c2.9,-4.5 8,-14 8,-14" fill="none" stroke="#7f7f7f" stroke-width="15" stroke-linecap="round"/><path d="M430,75c0,0 2.845,-14.142 5,-21c1.521,-4.839 4.948,-9.038 6,-14c1.315,-6.198 1,-19 4,-18c0,0 6.25,21.1 11,31c2.35,4.9 7.7,8 10,13c2.1,4.6 2.5,9.9 3,15c0.85,9.95 1.4,20 1,30c-0.25,5.4 -1.45,10.8 -3,16c-1.5,4.85 -4.1,9.3 -6,14c-2.45,5.95 -5,11.85 -7,18c-1.65,4.9 -3.35,9.85 -4,15c-0.7,5.25 0,10.65 0,16c0,4.95 -0.7,10 0,15c0.65,5.1 2.95,9.9 4,15c0.95,4.9 2,9.95 2,15c0,5 0.3,10.5 -2,15c-4.9,9.25 -12.95,16.45 -19,25c-2.95,4.1 -6.3,8.2 -8,13c-1.7,4.7 -3.05,10.05 -2,15c1.05,5.25 6.25,8.9 8,14c1.6,4.75 3.8,10.25 2,15c-1.95,5.05 -7.5,8 -12,11c-4.25,2.75 -9,5.15 -14,6c-5.3,0.85 -10.85,0.35 -16,-1c-5.05,-1.35 -9.8,-4 -14,-7c-4.25,-3.05 -6.35,-8.8 -11,-11c-4.85,-2.35 -10.65,-1.7 -16,-2c-5,-0.35 -10.05,-0.35 -15,0c-5.4,0.3 -10.95,0.3 -16,2c-5.1,1.65 -9.45,5.15 -14,8c-1.15,0.7 -2,2 -2,2" fill="none" stroke="#7f7f7f" stroke-width="15" stroke-linecap="round"/><path d="M195,0c0,0 8,0 12,0c4.95,0 10,0 15,0c4.95,0 10,-0.3 15,0c5,0.3 10,1.15 15,2c5,0.8 9.9,2.45 15,3c4.95,0.45 10,0 15,0c4.95,0 10,-0.5 15,0c5.05,0.5 9.95,2.3 15,3c4.95,0.65 9.95,1.15 15,1c5,-0.2 9.95,-1.8 15,-2c9.95,-0.45 20.4,-2.9 30,0c4.95,1.45 10,12 16,12c9.95,0.3 20.3,-1.5 30,1c3,0.75 5,8 6,37c0,0 -3.55,-6.6 -3,-10c0.85,-5.45 4.65,-10.05 15,0l-2,-15" fill="none" stroke="#7f7f7f" stroke-width="15" stroke-linecap="round"/><path d="M117,130c-1.7,5.65 -4.05,11.15 -5,17c-0.75,4.25 0,13 2,41c0,0 -5.389,-6.873 -6,-11c-0.787,-5.311 1.334,-10.672 2,-16" fill="none" stroke="#7f7f7f" stroke-width="15" stroke-linecap="round"/><path d="M329,18c0,0 0.327,3.367 0,5c-1.014,5.069 -3.047,9.919 -4,15c-1.05,5.602 -2,17 -1,17c0,0 -2.55,10.7 -4,16c-2.85,10 -3.4,21.2 -9,30c-2.75,4.25 -9.15,7.4 -14,6c-3.65,-1.1 -3,-11 -3,-11" fill="none" stroke="#7f7f7f" stroke-width="15" stroke-linecap="round"/><text transform="translate(7,350.01)" font-size="22" xml:space="preserve" fill="#000000" fill-rule="nonzero" stroke="none" stroke-width="1" stroke-linecap="butt" stroke-linejoin="miter" stroke-miterlimit="10" stroke-dasharray="" stroke-dashoffset="0" font-family="Sans Serif" font-weight="400" text-anchor="start" style="mix-blend-mode: normal"><tspan x="0" dy="0">Temple</tspan></text><text transform="translate(411,22.01)" font-size="22" xml:space="preserve" fill="#000000" fill-rule="nonzero" stroke="none" stroke-width="1" stroke-linecap="butt" stroke-linejoin="miter" stroke-miterlimit="10" stroke-dasharray="" stroke-dashoffset="0" font-family="Sans Serif" font-weight="400" text-anchor="start" style="mix-blend-mode: normal"><tspan x="0" dy="0">Store</tspan></text></g></g></svg>